# xmcd
#
# Track frame offsets: 
#        150
#        61408
#        81111
#        99967
#        123807
#        154934
#        186287
#        207383
#        227807
#        276641
#        312216
#
# Disc length: 4590 seconds
#
# Revision: 4
# Processed by: cddbd v1.5.1PL0 Copyright (c) Steve Scherf et al.
# Submitted via: ExactAudioCopy v0.95a5
#
DISCID=9711ec0b
DTITLE=Pink Floyd - Pulse Disk One
DYEAR=1995
DGENRE=Rock
TTITLE0=Shine On You Crazy Diamonds
TTITLE1=Astronomy Domine
TTITLE2=What Do You Want From Me
TTITLE3=Learning To Fly
TTITLE4=Keep Talking
TTITLE5=Coming Back To Life
TTITLE6=Hey You
TTITLE7=A Great Day For Freedom
TTITLE8=Sorrow
TTITLE9=High Hopes
TTITLE10=Another Brick In The Wall ( Part Two )
EXTD=YEAR: 1995 ID3G: 17
EXTT0=
EXTT1=
EXTT2=
EXTT3=
EXTT4=
EXTT5=
EXTT6=
EXTT7=
EXTT8=
EXTT9=
EXTT10=
PLAYORDER=
